<svg width="1200" height="675" viewBox="0 0 1200 675" fill="none" xmlns="http://www.w3.org/2000/svg">
  <defs>
    <radialGradient id="bgFog" cx="0" cy="0" r="1" gradientUnits="userSpaceOnUse" gradientTransform="translate(590 330) rotate(90) scale(420 780)">
      <stop stop-color="#17191D"/>
      <stop offset="1" stop-color="#08090C"/>
    </radialGradient>
    <linearGradient id="mountainRed" x1="600" y1="200" x2="600" y2="565" gradientUnits="userSpaceOnUse">
      <stop stop-color="#9EDC7C"/>
      <stop offset="1" stop-color="#7EBD5D"/>
    </linearGradient>
    <filter id="softFog" x="-50" y="-50" width="1300" height="775" filterUnits="userSpaceOnUse">
      <feGaussianBlur stdDeviation="14"/>
    </filter>
  </defs>

  <rect width="1200" height="675" fill="url(#bgFog)"/>

  <g filter="url(#softFog)" opacity="0.28">
    <ellipse cx="210" cy="548" rx="210" ry="92" fill="#D5D7DA"/>
    <ellipse cx="1000" cy="525" rx="250" ry="90" fill="#D5D7DA"/>
    <ellipse cx="880" cy="200" rx="190" ry="70" fill="#AEB3BA"/>
  </g>

  <path d="M255 510L382 380L432 410L515 312L575 235L620 268L665 352L735 395L795 438L865 515H255Z" fill="url(#mountainRed)"/>

  <path d="M558 322L590 273L621 327L604 388L657 342L698 366L670 321L710 298L676 302L638 245L606 191L593 236L541 278L560 305L526 354L558 340L535 387L579 362L551 430L610 381L582 442L647 394L707 463L676 406L740 425L718 375L776 390L752 342L810 366L788 323L853 333L806 300L739 290L690 247L624 211L577 260L558 322Z" fill="#8FD06E"/>
</svg>
